<mxfile host="app.diagrams.net" modified="2022-10-05T15:42:18.366Z" agent="5.0 (X11; Linux x86_64) AppleWebKit/537.36 (KHTML, like Gecko) Chrome/105.0.0.0 Safari/537.36" etag="svdfYu1G6zWnCNopVY3j" version="20.3.7" type="github" pages="4">
  <diagram id="J3fb69sWYaiuu0WDrm8Q" name="Quản lý mượn trả">
    <mxGraphModel dx="1609" dy="1974" grid="1" gridSize="10" guides="1" tooltips="1" connect="1" arrows="1" fold="1" page="1" pageScale="1" pageWidth="827" pageHeight="1169" math="0" shadow="0">
      <root>
        <mxCell id="0" />
        <mxCell id="1" parent="0" />
        <mxCell id="reOehUgQbwTyIaPIupj3-1" value="Actor" style="shape=umlActor;verticalLabelPosition=bottom;verticalAlign=top;html=1;outlineConnect=0;" parent="1" vertex="1">
          <mxGeometry x="90" y="160" width="30" height="60" as="geometry" />
        </mxCell>
        <mxCell id="reOehUgQbwTyIaPIupj3-4" value="Quản lý mượn" style="ellipse;whiteSpace=wrap;html=1;" parent="1" vertex="1">
          <mxGeometry x="220" y="110" width="120" height="80" as="geometry" />
        </mxCell>
        <mxCell id="reOehUgQbwTyIaPIupj3-5" value="Quản lý trả" style="ellipse;whiteSpace=wrap;html=1;" parent="1" vertex="1">
          <mxGeometry x="230" y="210" width="120" height="80" as="geometry" />
        </mxCell>
        <mxCell id="reOehUgQbwTyIaPIupj3-6" value="&amp;lt;&amp;lt;extend&amp;gt;&amp;gt;" style="html=1;verticalAlign=bottom;labelBackgroundColor=none;endArrow=open;endFill=0;dashed=1;rounded=0;entryX=0.992;entryY=0.313;entryDx=0;entryDy=0;entryPerimeter=0;" parent="1" source="reOehUgQbwTyIaPIupj3-10" target="reOehUgQbwTyIaPIupj3-4" edge="1">
          <mxGeometry width="160" relative="1" as="geometry">
            <mxPoint x="400" y="60" as="sourcePoint" />
            <mxPoint x="330" y="410" as="targetPoint" />
          </mxGeometry>
        </mxCell>
        <mxCell id="reOehUgQbwTyIaPIupj3-8" value="&amp;lt;&amp;lt;extend&amp;gt;&amp;gt;" style="html=1;verticalAlign=bottom;labelBackgroundColor=none;endArrow=open;endFill=0;dashed=1;rounded=0;exitX=0.092;exitY=0.138;exitDx=0;exitDy=0;exitPerimeter=0;" parent="1" source="reOehUgQbwTyIaPIupj3-12" target="reOehUgQbwTyIaPIupj3-4" edge="1">
          <mxGeometry width="160" relative="1" as="geometry">
            <mxPoint x="574" y="160" as="sourcePoint" />
            <mxPoint x="414" y="160" as="targetPoint" />
          </mxGeometry>
        </mxCell>
        <mxCell id="reOehUgQbwTyIaPIupj3-10" value="Cn phiếu mượn" style="ellipse;whiteSpace=wrap;html=1;" parent="1" vertex="1">
          <mxGeometry x="380" y="-20" width="120" height="80" as="geometry" />
        </mxCell>
        <mxCell id="reOehUgQbwTyIaPIupj3-11" value="Sửa phiếu mượn" style="ellipse;whiteSpace=wrap;html=1;" parent="1" vertex="1">
          <mxGeometry x="510" y="30" width="120" height="80" as="geometry" />
        </mxCell>
        <mxCell id="reOehUgQbwTyIaPIupj3-12" value="Xóa phiếu mượn" style="ellipse;whiteSpace=wrap;html=1;" parent="1" vertex="1">
          <mxGeometry x="580" y="150" width="120" height="80" as="geometry" />
        </mxCell>
        <mxCell id="reOehUgQbwTyIaPIupj3-13" value="" style="endArrow=none;html=1;rounded=0;exitX=0.5;exitY=0.5;exitDx=0;exitDy=0;exitPerimeter=0;" parent="1" source="reOehUgQbwTyIaPIupj3-1" edge="1">
          <mxGeometry width="50" height="50" relative="1" as="geometry">
            <mxPoint x="390" y="160" as="sourcePoint" />
            <mxPoint x="220" y="160" as="targetPoint" />
          </mxGeometry>
        </mxCell>
        <mxCell id="reOehUgQbwTyIaPIupj3-14" value="" style="endArrow=none;html=1;rounded=0;exitX=0.5;exitY=0.5;exitDx=0;exitDy=0;exitPerimeter=0;" parent="1" source="reOehUgQbwTyIaPIupj3-1" target="reOehUgQbwTyIaPIupj3-5" edge="1">
          <mxGeometry width="50" height="50" relative="1" as="geometry">
            <mxPoint x="115" y="200" as="sourcePoint" />
            <mxPoint x="230" y="170" as="targetPoint" />
          </mxGeometry>
        </mxCell>
        <mxCell id="reOehUgQbwTyIaPIupj3-15" value="&amp;lt;&amp;lt;extend&amp;gt;&amp;gt;" style="html=1;verticalAlign=bottom;labelBackgroundColor=none;endArrow=open;endFill=0;dashed=1;rounded=0;exitX=0.1;exitY=0.788;exitDx=0;exitDy=0;exitPerimeter=0;" parent="1" source="reOehUgQbwTyIaPIupj3-11" target="reOehUgQbwTyIaPIupj3-4" edge="1">
          <mxGeometry width="160" relative="1" as="geometry">
            <mxPoint x="601.04" y="161.03999999999996" as="sourcePoint" />
            <mxPoint x="349.9993021285718" y="160.19292380105662" as="targetPoint" />
          </mxGeometry>
        </mxCell>
        <mxCell id="reOehUgQbwTyIaPIupj3-16" value="Actor" style="shape=umlActor;verticalLabelPosition=bottom;verticalAlign=top;html=1;outlineConnect=0;" parent="1" vertex="1">
          <mxGeometry x="120" y="490" width="30" height="60" as="geometry" />
        </mxCell>
        <mxCell id="reOehUgQbwTyIaPIupj3-17" value="Quản lý mượn và trả" style="ellipse;whiteSpace=wrap;html=1;" parent="1" vertex="1">
          <mxGeometry x="250" y="440" width="120" height="80" as="geometry" />
        </mxCell>
        <mxCell id="reOehUgQbwTyIaPIupj3-21" value="Cn phiếu mượn" style="ellipse;whiteSpace=wrap;html=1;" parent="1" vertex="1">
          <mxGeometry x="420" y="310" width="110" height="80" as="geometry" />
        </mxCell>
        <mxCell id="reOehUgQbwTyIaPIupj3-22" value="Sửa phiếu mượn" style="ellipse;whiteSpace=wrap;html=1;" parent="1" vertex="1">
          <mxGeometry x="540" y="360" width="120" height="80" as="geometry" />
        </mxCell>
        <mxCell id="reOehUgQbwTyIaPIupj3-23" value="Xóa phiếu mượn" style="ellipse;whiteSpace=wrap;html=1;" parent="1" vertex="1">
          <mxGeometry x="770" y="460" width="120" height="80" as="geometry" />
        </mxCell>
        <mxCell id="reOehUgQbwTyIaPIupj3-24" value="" style="endArrow=none;html=1;rounded=0;exitX=0.5;exitY=0.5;exitDx=0;exitDy=0;exitPerimeter=0;" parent="1" source="reOehUgQbwTyIaPIupj3-16" edge="1">
          <mxGeometry width="50" height="50" relative="1" as="geometry">
            <mxPoint x="420" y="490" as="sourcePoint" />
            <mxPoint x="250" y="490" as="targetPoint" />
          </mxGeometry>
        </mxCell>
        <mxCell id="reOehUgQbwTyIaPIupj3-30" value="" style="endArrow=block;startArrow=none;endFill=0;startFill=0;endSize=8;html=1;verticalAlign=bottom;dashed=1;labelBackgroundColor=none;rounded=0;entryX=1;entryY=0;entryDx=0;entryDy=0;" parent="1" source="reOehUgQbwTyIaPIupj3-21" target="reOehUgQbwTyIaPIupj3-17" edge="1">
          <mxGeometry width="160" relative="1" as="geometry">
            <mxPoint x="330" y="460" as="sourcePoint" />
            <mxPoint x="490" y="460" as="targetPoint" />
          </mxGeometry>
        </mxCell>
        <mxCell id="reOehUgQbwTyIaPIupj3-31" value="" style="endArrow=block;startArrow=none;endFill=0;startFill=0;endSize=8;html=1;verticalAlign=bottom;dashed=1;labelBackgroundColor=none;rounded=0;" parent="1" source="reOehUgQbwTyIaPIupj3-23" target="reOehUgQbwTyIaPIupj3-17" edge="1">
          <mxGeometry width="160" relative="1" as="geometry">
            <mxPoint x="448.7006922583769" y="390.05106624511427" as="sourcePoint" />
            <mxPoint x="362.42640687119274" y="461.71572875253787" as="targetPoint" />
          </mxGeometry>
        </mxCell>
        <mxCell id="reOehUgQbwTyIaPIupj3-32" value="" style="endArrow=block;startArrow=none;endFill=0;startFill=0;endSize=8;html=1;verticalAlign=bottom;dashed=1;labelBackgroundColor=none;rounded=0;" parent="1" source="reOehUgQbwTyIaPIupj3-22" target="reOehUgQbwTyIaPIupj3-17" edge="1">
          <mxGeometry width="160" relative="1" as="geometry">
            <mxPoint x="458.7006922583769" y="400.05106624511427" as="sourcePoint" />
            <mxPoint x="372.42640687119274" y="471.71572875253787" as="targetPoint" />
          </mxGeometry>
        </mxCell>
        <mxCell id="reOehUgQbwTyIaPIupj3-33" value="Cập nhật thông tin trả sách vào phiếu mượn" style="ellipse;whiteSpace=wrap;html=1;" parent="1" vertex="1">
          <mxGeometry x="500" y="585" width="190" height="135" as="geometry" />
        </mxCell>
        <mxCell id="reOehUgQbwTyIaPIupj3-36" value="" style="endArrow=block;startArrow=none;endFill=0;startFill=0;endSize=8;html=1;verticalAlign=bottom;dashed=1;labelBackgroundColor=none;rounded=0;exitX=0;exitY=0;exitDx=0;exitDy=0;" parent="1" source="reOehUgQbwTyIaPIupj3-33" target="reOehUgQbwTyIaPIupj3-17" edge="1">
          <mxGeometry width="160" relative="1" as="geometry">
            <mxPoint x="620.8004425479326" y="523.4880486802726" as="sourcePoint" />
            <mxPoint x="379.1836354299287" y="496.5759594922142" as="targetPoint" />
          </mxGeometry>
        </mxCell>
      </root>
    </mxGraphModel>
  </diagram>
  <diagram id="42lqZ2GVrxG8tVmw3noo" name="Quản lý sách">
    <mxGraphModel dx="1609" dy="805" grid="1" gridSize="10" guides="1" tooltips="1" connect="1" arrows="1" fold="1" page="1" pageScale="1" pageWidth="827" pageHeight="1169" math="0" shadow="0">
      <root>
        <mxCell id="0" />
        <mxCell id="1" parent="0" />
        <mxCell id="CY8zzTTk3-JpdiWGqLv7-1" value="Thủ thư" style="shape=umlActor;verticalLabelPosition=bottom;verticalAlign=top;html=1;" vertex="1" parent="1">
          <mxGeometry x="30" y="200" width="30" height="60" as="geometry" />
        </mxCell>
        <mxCell id="CY8zzTTk3-JpdiWGqLv7-12" value="Quản lý sách" style="ellipse;whiteSpace=wrap;html=1;" vertex="1" parent="1">
          <mxGeometry x="150" y="230" width="120" height="80" as="geometry" />
        </mxCell>
        <mxCell id="CY8zzTTk3-JpdiWGqLv7-14" value="" style="endArrow=none;startArrow=none;endFill=0;startFill=0;endSize=8;html=1;verticalAlign=bottom;labelBackgroundColor=none;strokeWidth=3;rounded=0;exitX=0.5;exitY=0.5;exitDx=0;exitDy=0;exitPerimeter=0;" edge="1" parent="1" source="CY8zzTTk3-JpdiWGqLv7-1" target="CY8zzTTk3-JpdiWGqLv7-12">
          <mxGeometry width="160" relative="1" as="geometry">
            <mxPoint x="55" y="230" as="sourcePoint" />
            <mxPoint x="160" y="160" as="targetPoint" />
          </mxGeometry>
        </mxCell>
        <mxCell id="CY8zzTTk3-JpdiWGqLv7-15" value="Nhập thông tin sách" style="ellipse;whiteSpace=wrap;html=1;" vertex="1" parent="1">
          <mxGeometry x="430" y="190" width="120" height="80" as="geometry" />
        </mxCell>
        <mxCell id="CY8zzTTk3-JpdiWGqLv7-16" value="Sửa thông tin" style="ellipse;whiteSpace=wrap;html=1;" vertex="1" parent="1">
          <mxGeometry x="470" y="320" width="120" height="80" as="geometry" />
        </mxCell>
        <mxCell id="CY8zzTTk3-JpdiWGqLv7-17" value="Xóa sách" style="ellipse;whiteSpace=wrap;html=1;" vertex="1" parent="1">
          <mxGeometry x="294" y="390" width="120" height="80" as="geometry" />
        </mxCell>
        <mxCell id="CY8zzTTk3-JpdiWGqLv7-18" value="&amp;lt;&amp;lt;extend&amp;gt;&amp;gt;" style="html=1;verticalAlign=bottom;labelBackgroundColor=none;endArrow=open;endFill=0;dashed=1;rounded=0;entryX=0.958;entryY=0.275;entryDx=0;entryDy=0;entryPerimeter=0;exitX=0;exitY=0.5;exitDx=0;exitDy=0;" edge="1" parent="1" source="CY8zzTTk3-JpdiWGqLv7-15" target="CY8zzTTk3-JpdiWGqLv7-12">
          <mxGeometry width="160" relative="1" as="geometry">
            <mxPoint x="350" y="170" as="sourcePoint" />
            <mxPoint x="401.0276687839407" y="137.37154140200744" as="targetPoint" />
          </mxGeometry>
        </mxCell>
        <mxCell id="CY8zzTTk3-JpdiWGqLv7-19" value="&amp;lt;&amp;lt;extend&amp;gt;&amp;gt;" style="html=1;verticalAlign=bottom;labelBackgroundColor=none;endArrow=open;endFill=0;dashed=1;rounded=0;" edge="1" parent="1" source="CY8zzTTk3-JpdiWGqLv7-16" target="CY8zzTTk3-JpdiWGqLv7-12">
          <mxGeometry width="160" relative="1" as="geometry">
            <mxPoint x="343.0790021169679" y="252.64911064067383" as="sourcePoint" />
            <mxPoint x="276.99011615705524" y="267.4899745021098" as="targetPoint" />
          </mxGeometry>
        </mxCell>
        <mxCell id="CY8zzTTk3-JpdiWGqLv7-20" value="&amp;lt;&amp;lt;extend&amp;gt;&amp;gt;" style="html=1;verticalAlign=bottom;labelBackgroundColor=none;endArrow=open;endFill=0;dashed=1;rounded=0;entryX=0.5;entryY=1;entryDx=0;entryDy=0;" edge="1" parent="1" source="CY8zzTTk3-JpdiWGqLv7-17" target="CY8zzTTk3-JpdiWGqLv7-12">
          <mxGeometry width="160" relative="1" as="geometry">
            <mxPoint x="353.0790021169679" y="262.6491106406738" as="sourcePoint" />
            <mxPoint x="286.99011615705524" y="277.4899745021098" as="targetPoint" />
          </mxGeometry>
        </mxCell>
        <mxCell id="azT0ReUvyy8JjUVnASFu-1" value="Cập nhật chuyên ngành" style="ellipse;whiteSpace=wrap;html=1;" vertex="1" parent="1">
          <mxGeometry x="376.52" y="90" width="120" height="80" as="geometry" />
        </mxCell>
        <mxCell id="azT0ReUvyy8JjUVnASFu-2" value="&amp;lt;&amp;lt;extend&amp;gt;&amp;gt;" style="html=1;verticalAlign=bottom;labelBackgroundColor=none;endArrow=open;endFill=0;dashed=1;rounded=0;exitX=0;exitY=0.5;exitDx=0;exitDy=0;" edge="1" source="azT0ReUvyy8JjUVnASFu-1" parent="1" target="CY8zzTTk3-JpdiWGqLv7-12">
          <mxGeometry width="160" relative="1" as="geometry">
            <mxPoint x="296.52" y="70" as="sourcePoint" />
            <mxPoint x="211.48000000000005" y="152" as="targetPoint" />
          </mxGeometry>
        </mxCell>
      </root>
    </mxGraphModel>
  </diagram>
  <diagram id="gLgKdl2CXNG1j3k4Ijgl" name="Quản lý Bạn đọc">
    <mxGraphModel dx="1609" dy="805" grid="1" gridSize="10" guides="1" tooltips="1" connect="1" arrows="1" fold="1" page="1" pageScale="1" pageWidth="827" pageHeight="1169" math="0" shadow="0">
      <root>
        <mxCell id="0" />
        <mxCell id="1" parent="0" />
        <mxCell id="K6aZzxeu3Y5EH-9g4FOe-1" value="Thủ thư" style="shape=umlActor;verticalLabelPosition=bottom;verticalAlign=top;html=1;" vertex="1" parent="1">
          <mxGeometry x="30" y="200" width="30" height="60" as="geometry" />
        </mxCell>
        <mxCell id="K6aZzxeu3Y5EH-9g4FOe-6" value="Quản lý bạn đọc" style="ellipse;whiteSpace=wrap;html=1;" vertex="1" parent="1">
          <mxGeometry x="160" y="220" width="120" height="80" as="geometry" />
        </mxCell>
        <mxCell id="K6aZzxeu3Y5EH-9g4FOe-7" value="" style="endArrow=none;startArrow=none;endFill=0;startFill=0;endSize=8;html=1;verticalAlign=bottom;labelBackgroundColor=none;strokeWidth=3;rounded=0;exitX=0.5;exitY=0.5;exitDx=0;exitDy=0;exitPerimeter=0;" edge="1" parent="1" source="K6aZzxeu3Y5EH-9g4FOe-1" target="K6aZzxeu3Y5EH-9g4FOe-6">
          <mxGeometry width="160" relative="1" as="geometry">
            <mxPoint x="55" y="230" as="sourcePoint" />
            <mxPoint x="160" y="160" as="targetPoint" />
          </mxGeometry>
        </mxCell>
        <mxCell id="K6aZzxeu3Y5EH-9g4FOe-8" value="Đăng ký thành viên" style="ellipse;whiteSpace=wrap;html=1;" vertex="1" parent="1">
          <mxGeometry x="380" y="80" width="120" height="80" as="geometry" />
        </mxCell>
        <mxCell id="K6aZzxeu3Y5EH-9g4FOe-9" value="Sửa thông tin" style="ellipse;whiteSpace=wrap;html=1;" vertex="1" parent="1">
          <mxGeometry x="470" y="200" width="120" height="80" as="geometry" />
        </mxCell>
        <mxCell id="K6aZzxeu3Y5EH-9g4FOe-10" value="Xóa thông tin" style="ellipse;whiteSpace=wrap;html=1;" vertex="1" parent="1">
          <mxGeometry x="430" y="310" width="120" height="80" as="geometry" />
        </mxCell>
        <mxCell id="K6aZzxeu3Y5EH-9g4FOe-11" value="&amp;lt;&amp;lt;extend&amp;gt;&amp;gt;" style="html=1;verticalAlign=bottom;labelBackgroundColor=none;endArrow=open;endFill=0;dashed=1;rounded=0;" edge="1" parent="1" source="K6aZzxeu3Y5EH-9g4FOe-8" target="K6aZzxeu3Y5EH-9g4FOe-6">
          <mxGeometry width="160" relative="1" as="geometry">
            <mxPoint x="279.02696977657195" y="152.82545118737812" as="sourcePoint" />
            <mxPoint x="210" y="150" as="targetPoint" />
          </mxGeometry>
        </mxCell>
        <mxCell id="K6aZzxeu3Y5EH-9g4FOe-12" value="&amp;lt;&amp;lt;extend&amp;gt;&amp;gt;" style="html=1;verticalAlign=bottom;labelBackgroundColor=none;endArrow=open;endFill=0;dashed=1;rounded=0;" edge="1" parent="1" source="K6aZzxeu3Y5EH-9g4FOe-9" target="K6aZzxeu3Y5EH-9g4FOe-6">
          <mxGeometry width="160" relative="1" as="geometry">
            <mxPoint x="640" y="320" as="sourcePoint" />
            <mxPoint x="343.0790021169679" y="252.64911064067383" as="targetPoint" />
          </mxGeometry>
        </mxCell>
        <mxCell id="K6aZzxeu3Y5EH-9g4FOe-13" value="&amp;lt;&amp;lt;extend&amp;gt;&amp;gt;" style="html=1;verticalAlign=bottom;labelBackgroundColor=none;endArrow=open;endFill=0;dashed=1;rounded=0;" edge="1" parent="1" source="K6aZzxeu3Y5EH-9g4FOe-10" target="K6aZzxeu3Y5EH-9g4FOe-6">
          <mxGeometry width="160" relative="1" as="geometry">
            <mxPoint x="230" y="400" as="sourcePoint" />
            <mxPoint x="353.0790021169679" y="262.6491106406738" as="targetPoint" />
          </mxGeometry>
        </mxCell>
      </root>
    </mxGraphModel>
  </diagram>
  <diagram id="6rCcRg12fYyZnC9U6hiH" name="[C]: library_management">
    <mxGraphModel dx="2359" dy="1936" grid="0" gridSize="10" guides="1" tooltips="1" connect="1" arrows="1" fold="1" page="1" pageScale="1" pageWidth="827" pageHeight="1169" math="0" shadow="0">
      <root>
        <mxCell id="0" />
        <mxCell id="1" parent="0" />
        <mxCell id="tyPaWkdRhVO0OSevOVa2-13" value="&lt;span style=&quot;font-size: 8px;&quot;&gt;&lt;b&gt;Quan Ly&lt;/b&gt;&lt;/span&gt;" style="swimlane;fontStyle=0;align=center;verticalAlign=top;childLayout=stackLayout;horizontal=1;startSize=30;horizontalStack=0;resizeParent=1;resizeParentMax=0;resizeLast=0;collapsible=0;marginBottom=0;html=1;" vertex="1" parent="1">
          <mxGeometry x="-738" y="-440" width="176" height="234" as="geometry" />
        </mxCell>
        <mxCell id="tyPaWkdRhVO0OSevOVa2-20" value="- MaSo: char" style="text;html=1;strokeColor=none;fillColor=none;align=left;verticalAlign=middle;spacingLeft=4;spacingRight=4;overflow=hidden;rotatable=0;points=[[0,0.5],[1,0.5]];portConstraint=eastwest;" vertex="1" parent="tyPaWkdRhVO0OSevOVa2-13">
          <mxGeometry y="30" width="176" height="28" as="geometry" />
        </mxCell>
        <mxCell id="tyPaWkdRhVO0OSevOVa2-36" value="- Ten: char" style="text;html=1;strokeColor=none;fillColor=none;align=left;verticalAlign=middle;spacingLeft=4;spacingRight=4;overflow=hidden;rotatable=0;points=[[0,0.5],[1,0.5]];portConstraint=eastwest;" vertex="1" parent="tyPaWkdRhVO0OSevOVa2-13">
          <mxGeometry y="58" width="176" height="28" as="geometry" />
        </mxCell>
        <mxCell id="tyPaWkdRhVO0OSevOVa2-35" value="- NgaySinh: datetime" style="text;html=1;strokeColor=none;fillColor=none;align=left;verticalAlign=middle;spacingLeft=4;spacingRight=4;overflow=hidden;rotatable=0;points=[[0,0.5],[1,0.5]];portConstraint=eastwest;" vertex="1" parent="tyPaWkdRhVO0OSevOVa2-13">
          <mxGeometry y="86" width="176" height="28" as="geometry" />
        </mxCell>
        <mxCell id="tyPaWkdRhVO0OSevOVa2-18" value="" style="line;strokeWidth=1;fillColor=none;align=left;verticalAlign=middle;spacingTop=-1;spacingLeft=3;spacingRight=3;rotatable=0;labelPosition=right;points=[];portConstraint=eastwest;" vertex="1" parent="tyPaWkdRhVO0OSevOVa2-13">
          <mxGeometry y="114" width="176" height="8" as="geometry" />
        </mxCell>
        <mxCell id="tyPaWkdRhVO0OSevOVa2-33" value="+ CapQuyen()" style="text;html=1;strokeColor=none;fillColor=none;align=left;verticalAlign=middle;spacingLeft=4;spacingRight=4;overflow=hidden;rotatable=0;points=[[0,0.5],[1,0.5]];portConstraint=eastwest;" vertex="1" parent="tyPaWkdRhVO0OSevOVa2-13">
          <mxGeometry y="122" width="176" height="28" as="geometry" />
        </mxCell>
        <mxCell id="tyPaWkdRhVO0OSevOVa2-34" value="+ TaoTaiKhoan()" style="text;html=1;strokeColor=none;fillColor=none;align=left;verticalAlign=middle;spacingLeft=4;spacingRight=4;overflow=hidden;rotatable=0;points=[[0,0.5],[1,0.5]];portConstraint=eastwest;" vertex="1" parent="tyPaWkdRhVO0OSevOVa2-13">
          <mxGeometry y="150" width="176" height="28" as="geometry" />
        </mxCell>
        <mxCell id="tyPaWkdRhVO0OSevOVa2-40" value="+ SuaTaiKhoan()" style="text;html=1;strokeColor=none;fillColor=none;align=left;verticalAlign=middle;spacingLeft=4;spacingRight=4;overflow=hidden;rotatable=0;points=[[0,0.5],[1,0.5]];portConstraint=eastwest;" vertex="1" parent="tyPaWkdRhVO0OSevOVa2-13">
          <mxGeometry y="178" width="176" height="28" as="geometry" />
        </mxCell>
        <mxCell id="tyPaWkdRhVO0OSevOVa2-41" value="+ XoaTaiKhoan()" style="text;html=1;strokeColor=none;fillColor=none;align=left;verticalAlign=middle;spacingLeft=4;spacingRight=4;overflow=hidden;rotatable=0;points=[[0,0.5],[1,0.5]];portConstraint=eastwest;" vertex="1" parent="tyPaWkdRhVO0OSevOVa2-13">
          <mxGeometry y="206" width="176" height="28" as="geometry" />
        </mxCell>
        <mxCell id="tyPaWkdRhVO0OSevOVa2-52" value="&lt;span style=&quot;font-size: 8px;&quot;&gt;&lt;b&gt;Thu Thu&lt;/b&gt;&lt;/span&gt;" style="swimlane;fontStyle=0;align=center;verticalAlign=top;childLayout=stackLayout;horizontal=1;startSize=30;horizontalStack=0;resizeParent=1;resizeParentMax=0;resizeLast=0;collapsible=0;marginBottom=0;html=1;" vertex="1" parent="1">
          <mxGeometry x="-210" y="-198" width="176" height="178" as="geometry" />
        </mxCell>
        <mxCell id="tyPaWkdRhVO0OSevOVa2-53" value="- MaSo: char" style="text;html=1;strokeColor=none;fillColor=none;align=left;verticalAlign=middle;spacingLeft=4;spacingRight=4;overflow=hidden;rotatable=0;points=[[0,0.5],[1,0.5]];portConstraint=eastwest;" vertex="1" parent="tyPaWkdRhVO0OSevOVa2-52">
          <mxGeometry y="30" width="176" height="28" as="geometry" />
        </mxCell>
        <mxCell id="tyPaWkdRhVO0OSevOVa2-54" value="- TenThuThu: char" style="text;html=1;strokeColor=none;fillColor=none;align=left;verticalAlign=middle;spacingLeft=4;spacingRight=4;overflow=hidden;rotatable=0;points=[[0,0.5],[1,0.5]];portConstraint=eastwest;" vertex="1" parent="tyPaWkdRhVO0OSevOVa2-52">
          <mxGeometry y="58" width="176" height="28" as="geometry" />
        </mxCell>
        <mxCell id="tyPaWkdRhVO0OSevOVa2-55" value="- NgaySinh: datetime" style="text;html=1;strokeColor=none;fillColor=none;align=left;verticalAlign=middle;spacingLeft=4;spacingRight=4;overflow=hidden;rotatable=0;points=[[0,0.5],[1,0.5]];portConstraint=eastwest;" vertex="1" parent="tyPaWkdRhVO0OSevOVa2-52">
          <mxGeometry y="86" width="176" height="28" as="geometry" />
        </mxCell>
        <mxCell id="tyPaWkdRhVO0OSevOVa2-56" value="- DienThoai: char" style="text;html=1;strokeColor=none;fillColor=none;align=left;verticalAlign=middle;spacingLeft=4;spacingRight=4;overflow=hidden;rotatable=0;points=[[0,0.5],[1,0.5]];portConstraint=eastwest;" vertex="1" parent="tyPaWkdRhVO0OSevOVa2-52">
          <mxGeometry y="114" width="176" height="28" as="geometry" />
        </mxCell>
        <mxCell id="tyPaWkdRhVO0OSevOVa2-57" value="" style="line;strokeWidth=1;fillColor=none;align=left;verticalAlign=middle;spacingTop=-1;spacingLeft=3;spacingRight=3;rotatable=0;labelPosition=right;points=[];portConstraint=eastwest;" vertex="1" parent="tyPaWkdRhVO0OSevOVa2-52">
          <mxGeometry y="142" width="176" height="8" as="geometry" />
        </mxCell>
        <mxCell id="tyPaWkdRhVO0OSevOVa2-58" value="+ BaoCao()" style="text;html=1;strokeColor=none;fillColor=none;align=left;verticalAlign=middle;spacingLeft=4;spacingRight=4;overflow=hidden;rotatable=0;points=[[0,0.5],[1,0.5]];portConstraint=eastwest;" vertex="1" parent="tyPaWkdRhVO0OSevOVa2-52">
          <mxGeometry y="150" width="176" height="28" as="geometry" />
        </mxCell>
        <mxCell id="tyPaWkdRhVO0OSevOVa2-65" value="" style="endArrow=none;html=1;rounded=0;fontFamily=Times New Roman;fontSize=11;" edge="1" parent="1" source="tyPaWkdRhVO0OSevOVa2-90" target="tyPaWkdRhVO0OSevOVa2-13">
          <mxGeometry width="50" height="50" relative="1" as="geometry">
            <mxPoint x="370" y="270" as="sourcePoint" />
            <mxPoint x="420" y="220" as="targetPoint" />
          </mxGeometry>
        </mxCell>
        <mxCell id="tyPaWkdRhVO0OSevOVa2-66" value="" style="endArrow=none;html=1;rounded=0;fontFamily=Times New Roman;fontSize=11;" edge="1" parent="1" source="tyPaWkdRhVO0OSevOVa2-90" target="tyPaWkdRhVO0OSevOVa2-52">
          <mxGeometry width="50" height="50" relative="1" as="geometry">
            <mxPoint x="-124" y="-0.9281767955799296" as="sourcePoint" />
            <mxPoint x="424" y="-318.07182320441984" as="targetPoint" />
          </mxGeometry>
        </mxCell>
        <mxCell id="tyPaWkdRhVO0OSevOVa2-90" value="Account" style="swimlane;fontStyle=1;align=center;verticalAlign=middle;childLayout=stackLayout;horizontal=1;startSize=29;horizontalStack=0;resizeParent=1;resizeParentMax=0;resizeLast=0;collapsible=0;marginBottom=0;html=1;fontFamily=Times New Roman;fontSize=11;" vertex="1" parent="1">
          <mxGeometry x="-720" y="-33" width="140" height="113" as="geometry" />
        </mxCell>
        <mxCell id="tyPaWkdRhVO0OSevOVa2-43" value="-username: char" style="text;html=1;strokeColor=none;fillColor=none;align=left;verticalAlign=middle;spacingLeft=4;spacingRight=4;overflow=hidden;rotatable=0;points=[[0,0.5],[1,0.5]];portConstraint=eastwest;" vertex="1" parent="tyPaWkdRhVO0OSevOVa2-90">
          <mxGeometry y="29" width="140" height="28" as="geometry" />
        </mxCell>
        <mxCell id="tyPaWkdRhVO0OSevOVa2-44" value="-password: char" style="text;html=1;strokeColor=none;fillColor=none;align=left;verticalAlign=middle;spacingLeft=4;spacingRight=4;overflow=hidden;rotatable=0;points=[[0,0.5],[1,0.5]];portConstraint=eastwest;" vertex="1" parent="tyPaWkdRhVO0OSevOVa2-90">
          <mxGeometry y="57" width="140" height="28" as="geometry" />
        </mxCell>
        <mxCell id="tyPaWkdRhVO0OSevOVa2-45" value="-role: char" style="text;html=1;strokeColor=none;fillColor=none;align=left;verticalAlign=middle;spacingLeft=4;spacingRight=4;overflow=hidden;rotatable=0;points=[[0,0.5],[1,0.5]];portConstraint=eastwest;" vertex="1" parent="tyPaWkdRhVO0OSevOVa2-90">
          <mxGeometry y="85" width="140" height="28" as="geometry" />
        </mxCell>
        <mxCell id="tyPaWkdRhVO0OSevOVa2-94" value="Lop" style="swimlane;fontStyle=1;align=center;verticalAlign=middle;childLayout=stackLayout;horizontal=1;startSize=29;horizontalStack=0;resizeParent=1;resizeParentMax=0;resizeLast=0;collapsible=0;marginBottom=0;html=1;fontFamily=Times New Roman;fontSize=11;" vertex="1" parent="1">
          <mxGeometry x="920" y="-28" width="140" height="85" as="geometry" />
        </mxCell>
        <mxCell id="tyPaWkdRhVO0OSevOVa2-82" value="- TenLop: char" style="text;html=1;strokeColor=none;fillColor=none;align=left;verticalAlign=middle;spacingLeft=4;spacingRight=4;overflow=hidden;rotatable=0;points=[[0,0.5],[1,0.5]];portConstraint=eastwest;" vertex="1" parent="tyPaWkdRhVO0OSevOVa2-94">
          <mxGeometry y="29" width="140" height="28" as="geometry" />
        </mxCell>
        <mxCell id="tyPaWkdRhVO0OSevOVa2-81" value="- MaLop: char" style="text;html=1;strokeColor=none;fillColor=none;align=left;verticalAlign=middle;spacingLeft=4;spacingRight=4;overflow=hidden;rotatable=0;points=[[0,0.5],[1,0.5]];portConstraint=eastwest;" vertex="1" parent="tyPaWkdRhVO0OSevOVa2-94">
          <mxGeometry y="57" width="140" height="28" as="geometry" />
        </mxCell>
        <mxCell id="tyPaWkdRhVO0OSevOVa2-98" value="Doc Gia" style="swimlane;fontStyle=1;align=center;verticalAlign=middle;childLayout=stackLayout;horizontal=1;startSize=29;horizontalStack=0;resizeParent=1;resizeParentMax=0;resizeLast=0;collapsible=0;marginBottom=0;html=1;fontFamily=Times New Roman;fontSize=11;" vertex="1" parent="1">
          <mxGeometry x="480" y="-70" width="170" height="169" as="geometry" />
        </mxCell>
        <mxCell id="tyPaWkdRhVO0OSevOVa2-70" value="- MaDocGia: char" style="text;html=1;strokeColor=none;fillColor=none;align=left;verticalAlign=middle;spacingLeft=4;spacingRight=4;overflow=hidden;rotatable=0;points=[[0,0.5],[1,0.5]];portConstraint=eastwest;" vertex="1" parent="tyPaWkdRhVO0OSevOVa2-98">
          <mxGeometry y="29" width="170" height="28" as="geometry" />
        </mxCell>
        <mxCell id="tyPaWkdRhVO0OSevOVa2-73" value="- TenDocGia: char" style="text;html=1;strokeColor=none;fillColor=none;align=left;verticalAlign=middle;spacingLeft=4;spacingRight=4;overflow=hidden;rotatable=0;points=[[0,0.5],[1,0.5]];portConstraint=eastwest;" vertex="1" parent="tyPaWkdRhVO0OSevOVa2-98">
          <mxGeometry y="57" width="170" height="28" as="geometry" />
        </mxCell>
        <mxCell id="tyPaWkdRhVO0OSevOVa2-72" value="- NgaySinh: datetime" style="text;html=1;strokeColor=none;fillColor=none;align=left;verticalAlign=middle;spacingLeft=4;spacingRight=4;overflow=hidden;rotatable=0;points=[[0,0.5],[1,0.5]];portConstraint=eastwest;" vertex="1" parent="tyPaWkdRhVO0OSevOVa2-98">
          <mxGeometry y="85" width="170" height="28" as="geometry" />
        </mxCell>
        <mxCell id="tyPaWkdRhVO0OSevOVa2-79" value="- GioiTinh: char" style="text;html=1;strokeColor=none;fillColor=none;align=left;verticalAlign=middle;spacingLeft=4;spacingRight=4;overflow=hidden;rotatable=0;points=[[0,0.5],[1,0.5]];portConstraint=eastwest;" vertex="1" parent="tyPaWkdRhVO0OSevOVa2-98">
          <mxGeometry y="113" width="170" height="28" as="geometry" />
        </mxCell>
        <mxCell id="tyPaWkdRhVO0OSevOVa2-71" value="- Lop: char" style="text;html=1;strokeColor=none;fillColor=none;align=left;verticalAlign=middle;spacingLeft=4;spacingRight=4;overflow=hidden;rotatable=0;points=[[0,0.5],[1,0.5]];portConstraint=eastwest;" vertex="1" parent="tyPaWkdRhVO0OSevOVa2-98">
          <mxGeometry y="141" width="170" height="28" as="geometry" />
        </mxCell>
        <mxCell id="tyPaWkdRhVO0OSevOVa2-101" value="Sach" style="swimlane;fontStyle=1;align=center;verticalAlign=middle;childLayout=stackLayout;horizontal=1;startSize=29;horizontalStack=0;resizeParent=1;resizeParentMax=0;resizeLast=0;collapsible=0;marginBottom=0;html=1;fontFamily=Times New Roman;fontSize=11;" vertex="1" parent="1">
          <mxGeometry x="460" y="-460" width="210" height="169" as="geometry" />
        </mxCell>
        <mxCell id="tyPaWkdRhVO0OSevOVa2-102" value="- MaSach: char" style="text;html=1;strokeColor=none;fillColor=none;align=left;verticalAlign=middle;spacingLeft=4;spacingRight=4;overflow=hidden;rotatable=0;points=[[0,0.5],[1,0.5]];portConstraint=eastwest;" vertex="1" parent="tyPaWkdRhVO0OSevOVa2-101">
          <mxGeometry y="29" width="210" height="28" as="geometry" />
        </mxCell>
        <mxCell id="tyPaWkdRhVO0OSevOVa2-103" value="- TenSach: char" style="text;html=1;strokeColor=none;fillColor=none;align=left;verticalAlign=middle;spacingLeft=4;spacingRight=4;overflow=hidden;rotatable=0;points=[[0,0.5],[1,0.5]];portConstraint=eastwest;" vertex="1" parent="tyPaWkdRhVO0OSevOVa2-101">
          <mxGeometry y="57" width="210" height="28" as="geometry" />
        </mxCell>
        <mxCell id="tyPaWkdRhVO0OSevOVa2-104" value="- TinhTrang: char" style="text;html=1;strokeColor=none;fillColor=none;align=left;verticalAlign=middle;spacingLeft=4;spacingRight=4;overflow=hidden;rotatable=0;points=[[0,0.5],[1,0.5]];portConstraint=eastwest;" vertex="1" parent="tyPaWkdRhVO0OSevOVa2-101">
          <mxGeometry y="85" width="210" height="28" as="geometry" />
        </mxCell>
        <mxCell id="tyPaWkdRhVO0OSevOVa2-105" value="- NgayNhap: datetime" style="text;html=1;strokeColor=none;fillColor=none;align=left;verticalAlign=middle;spacingLeft=4;spacingRight=4;overflow=hidden;rotatable=0;points=[[0,0.5],[1,0.5]];portConstraint=eastwest;" vertex="1" parent="tyPaWkdRhVO0OSevOVa2-101">
          <mxGeometry y="113" width="210" height="28" as="geometry" />
        </mxCell>
        <mxCell id="tyPaWkdRhVO0OSevOVa2-106" value="- MaDauSach: char" style="text;html=1;strokeColor=none;fillColor=none;align=left;verticalAlign=middle;spacingLeft=4;spacingRight=4;overflow=hidden;rotatable=0;points=[[0,0.5],[1,0.5]];portConstraint=eastwest;" vertex="1" parent="tyPaWkdRhVO0OSevOVa2-101">
          <mxGeometry y="141" width="210" height="28" as="geometry" />
        </mxCell>
        <mxCell id="tyPaWkdRhVO0OSevOVa2-113" value="Muon Tra" style="swimlane;fontStyle=1;align=center;verticalAlign=middle;childLayout=stackLayout;horizontal=1;startSize=29;horizontalStack=0;resizeParent=1;resizeParentMax=0;resizeLast=0;collapsible=0;marginBottom=0;html=1;fontFamily=Times New Roman;fontSize=11;" vertex="1" parent="1">
          <mxGeometry x="120" y="-197" width="210" height="169" as="geometry" />
        </mxCell>
        <mxCell id="tyPaWkdRhVO0OSevOVa2-114" value="- MaSach: char" style="text;html=1;strokeColor=none;fillColor=none;align=left;verticalAlign=middle;spacingLeft=4;spacingRight=4;overflow=hidden;rotatable=0;points=[[0,0.5],[1,0.5]];portConstraint=eastwest;" vertex="1" parent="tyPaWkdRhVO0OSevOVa2-113">
          <mxGeometry y="29" width="210" height="28" as="geometry" />
        </mxCell>
        <mxCell id="tyPaWkdRhVO0OSevOVa2-115" value="- TenSach: char" style="text;html=1;strokeColor=none;fillColor=none;align=left;verticalAlign=middle;spacingLeft=4;spacingRight=4;overflow=hidden;rotatable=0;points=[[0,0.5],[1,0.5]];portConstraint=eastwest;" vertex="1" parent="tyPaWkdRhVO0OSevOVa2-113">
          <mxGeometry y="57" width="210" height="28" as="geometry" />
        </mxCell>
        <mxCell id="tyPaWkdRhVO0OSevOVa2-116" value="- TinhTrang: char" style="text;html=1;strokeColor=none;fillColor=none;align=left;verticalAlign=middle;spacingLeft=4;spacingRight=4;overflow=hidden;rotatable=0;points=[[0,0.5],[1,0.5]];portConstraint=eastwest;" vertex="1" parent="tyPaWkdRhVO0OSevOVa2-113">
          <mxGeometry y="85" width="210" height="28" as="geometry" />
        </mxCell>
        <mxCell id="tyPaWkdRhVO0OSevOVa2-117" value="- NgayNhap: datetime" style="text;html=1;strokeColor=none;fillColor=none;align=left;verticalAlign=middle;spacingLeft=4;spacingRight=4;overflow=hidden;rotatable=0;points=[[0,0.5],[1,0.5]];portConstraint=eastwest;" vertex="1" parent="tyPaWkdRhVO0OSevOVa2-113">
          <mxGeometry y="113" width="210" height="28" as="geometry" />
        </mxCell>
        <mxCell id="tyPaWkdRhVO0OSevOVa2-118" value="- MaDauSach: char" style="text;html=1;strokeColor=none;fillColor=none;align=left;verticalAlign=middle;spacingLeft=4;spacingRight=4;overflow=hidden;rotatable=0;points=[[0,0.5],[1,0.5]];portConstraint=eastwest;" vertex="1" parent="tyPaWkdRhVO0OSevOVa2-113">
          <mxGeometry y="141" width="210" height="28" as="geometry" />
        </mxCell>
        <mxCell id="tyPaWkdRhVO0OSevOVa2-125" value="&lt;font style=&quot;font-size: 8px;&quot;&gt;&lt;b&gt;DauSach&lt;/b&gt;&lt;/font&gt;" style="swimlane;fontStyle=0;align=center;verticalAlign=top;childLayout=stackLayout;horizontal=1;startSize=30;horizontalStack=0;resizeParent=1;resizeParentMax=0;resizeLast=0;collapsible=0;marginBottom=0;html=1;" vertex="1" parent="1">
          <mxGeometry x="860" y="-460" width="210" height="150" as="geometry" />
        </mxCell>
        <mxCell id="tyPaWkdRhVO0OSevOVa2-126" value="-MaDauSach: char" style="text;html=1;strokeColor=none;fillColor=none;align=left;verticalAlign=middle;spacingLeft=4;spacingRight=4;overflow=hidden;rotatable=0;points=[[0,0.5],[1,0.5]];portConstraint=eastwest;" vertex="1" parent="tyPaWkdRhVO0OSevOVa2-125">
          <mxGeometry y="30" width="210" height="28" as="geometry" />
        </mxCell>
        <mxCell id="tyPaWkdRhVO0OSevOVa2-127" value="-TenDauSach: char" style="text;html=1;strokeColor=none;fillColor=none;align=left;verticalAlign=middle;spacingLeft=4;spacingRight=4;overflow=hidden;rotatable=0;points=[[0,0.5],[1,0.5]];portConstraint=eastwest;" vertex="1" parent="tyPaWkdRhVO0OSevOVa2-125">
          <mxGeometry y="58" width="210" height="28" as="geometry" />
        </mxCell>
        <mxCell id="tyPaWkdRhVO0OSevOVa2-128" value="- NhaXuatBan: char" style="text;html=1;strokeColor=none;fillColor=none;align=left;verticalAlign=middle;spacingLeft=4;spacingRight=4;overflow=hidden;rotatable=0;points=[[0,0.5],[1,0.5]];portConstraint=eastwest;" vertex="1" parent="tyPaWkdRhVO0OSevOVa2-125">
          <mxGeometry y="86" width="210" height="28" as="geometry" />
        </mxCell>
        <mxCell id="tyPaWkdRhVO0OSevOVa2-130" value="" style="line;strokeWidth=1;fillColor=none;align=left;verticalAlign=middle;spacingTop=-1;spacingLeft=3;spacingRight=3;rotatable=0;labelPosition=right;points=[];portConstraint=eastwest;" vertex="1" parent="tyPaWkdRhVO0OSevOVa2-125">
          <mxGeometry y="114" width="210" height="8" as="geometry" />
        </mxCell>
        <mxCell id="tyPaWkdRhVO0OSevOVa2-134" value="+ LayChuyenNganh()" style="text;html=1;strokeColor=none;fillColor=none;align=left;verticalAlign=middle;spacingLeft=4;spacingRight=4;overflow=hidden;rotatable=0;points=[[0,0.5],[1,0.5]];portConstraint=eastwest;" vertex="1" parent="tyPaWkdRhVO0OSevOVa2-125">
          <mxGeometry y="122" width="210" height="28" as="geometry" />
        </mxCell>
        <mxCell id="tyPaWkdRhVO0OSevOVa2-142" value="Chuyen Nganh" style="swimlane;fontStyle=1;align=center;verticalAlign=middle;childLayout=stackLayout;horizontal=1;startSize=29;horizontalStack=0;resizeParent=1;resizeParentMax=0;resizeLast=0;collapsible=0;marginBottom=0;html=1;fontFamily=Times New Roman;fontSize=11;" vertex="1" parent="1">
          <mxGeometry x="1310" y="-441.5" width="210" height="113" as="geometry" />
        </mxCell>
        <mxCell id="tyPaWkdRhVO0OSevOVa2-143" value="- MaChuyenNganh: char" style="text;html=1;strokeColor=none;fillColor=none;align=left;verticalAlign=middle;spacingLeft=4;spacingRight=4;overflow=hidden;rotatable=0;points=[[0,0.5],[1,0.5]];portConstraint=eastwest;" vertex="1" parent="tyPaWkdRhVO0OSevOVa2-142">
          <mxGeometry y="29" width="210" height="28" as="geometry" />
        </mxCell>
        <mxCell id="tyPaWkdRhVO0OSevOVa2-144" value="-TenChuyenNganh: char" style="text;html=1;strokeColor=none;fillColor=none;align=left;verticalAlign=middle;spacingLeft=4;spacingRight=4;overflow=hidden;rotatable=0;points=[[0,0.5],[1,0.5]];portConstraint=eastwest;" vertex="1" parent="tyPaWkdRhVO0OSevOVa2-142">
          <mxGeometry y="57" width="210" height="28" as="geometry" />
        </mxCell>
        <mxCell id="tyPaWkdRhVO0OSevOVa2-145" value="-Mota: char" style="text;html=1;strokeColor=none;fillColor=none;align=left;verticalAlign=middle;spacingLeft=4;spacingRight=4;overflow=hidden;rotatable=0;points=[[0,0.5],[1,0.5]];portConstraint=eastwest;" vertex="1" parent="tyPaWkdRhVO0OSevOVa2-142">
          <mxGeometry y="85" width="210" height="28" as="geometry" />
        </mxCell>
        <mxCell id="tyPaWkdRhVO0OSevOVa2-148" value="" style="endArrow=none;html=1;rounded=0;fontFamily=Times New Roman;fontSize=11;" edge="1" parent="1" source="tyPaWkdRhVO0OSevOVa2-142" target="tyPaWkdRhVO0OSevOVa2-125">
          <mxGeometry width="50" height="50" relative="1" as="geometry">
            <mxPoint x="1108.0553497164465" y="-170" as="sourcePoint" />
            <mxPoint x="1100.002419659735" y="256" as="targetPoint" />
          </mxGeometry>
        </mxCell>
        <mxCell id="tyPaWkdRhVO0OSevOVa2-149" value="" style="endArrow=none;html=1;rounded=0;fontFamily=Times New Roman;fontSize=11;" edge="1" parent="1" source="tyPaWkdRhVO0OSevOVa2-101" target="tyPaWkdRhVO0OSevOVa2-125">
          <mxGeometry width="50" height="50" relative="1" as="geometry">
            <mxPoint x="1078.0553497164465" y="-155.5" as="sourcePoint" />
            <mxPoint x="1070.002419659735" y="270.5" as="targetPoint" />
          </mxGeometry>
        </mxCell>
        <mxCell id="tyPaWkdRhVO0OSevOVa2-150" value="" style="endArrow=none;html=1;rounded=0;fontFamily=Times New Roman;fontSize=11;" edge="1" parent="1" source="tyPaWkdRhVO0OSevOVa2-94" target="tyPaWkdRhVO0OSevOVa2-98">
          <mxGeometry width="50" height="50" relative="1" as="geometry">
            <mxPoint x="137.7353497164463" y="-196" as="sourcePoint" />
            <mxPoint x="129.68241965973493" y="230" as="targetPoint" />
          </mxGeometry>
        </mxCell>
        <mxCell id="tyPaWkdRhVO0OSevOVa2-151" value="" style="endArrow=none;html=1;rounded=0;fontFamily=Times New Roman;fontSize=11;" edge="1" parent="1" source="tyPaWkdRhVO0OSevOVa2-101" target="tyPaWkdRhVO0OSevOVa2-113">
          <mxGeometry width="50" height="50" relative="1" as="geometry">
            <mxPoint x="309.9953497164463" y="-581.5" as="sourcePoint" />
            <mxPoint x="301.9424196597349" y="-155.5" as="targetPoint" />
          </mxGeometry>
        </mxCell>
        <mxCell id="tyPaWkdRhVO0OSevOVa2-152" value="" style="endArrow=none;html=1;rounded=0;fontFamily=Times New Roman;fontSize=11;" edge="1" parent="1" source="tyPaWkdRhVO0OSevOVa2-98" target="tyPaWkdRhVO0OSevOVa2-113">
          <mxGeometry width="50" height="50" relative="1" as="geometry">
            <mxPoint x="157.7353497164463" y="-176" as="sourcePoint" />
            <mxPoint x="149.68241965973493" y="250" as="targetPoint" />
          </mxGeometry>
        </mxCell>
        <mxCell id="tyPaWkdRhVO0OSevOVa2-153" value="" style="endArrow=none;html=1;rounded=0;fontFamily=Times New Roman;fontSize=11;" edge="1" parent="1" source="tyPaWkdRhVO0OSevOVa2-113" target="tyPaWkdRhVO0OSevOVa2-52">
          <mxGeometry width="50" height="50" relative="1" as="geometry">
            <mxPoint x="167.7353497164463" y="-166" as="sourcePoint" />
            <mxPoint x="159.68241965973493" y="260" as="targetPoint" />
          </mxGeometry>
        </mxCell>
        <mxCell id="tyPaWkdRhVO0OSevOVa2-167" value="&lt;b&gt;1&lt;/b&gt;" style="text;html=1;align=center;verticalAlign=middle;resizable=0;points=[];autosize=1;strokeColor=none;fillColor=none;fontSize=11;fontFamily=Times New Roman;" vertex="1" parent="1">
          <mxGeometry x="-30" y="-148" width="30" height="30" as="geometry" />
        </mxCell>
        <mxCell id="tyPaWkdRhVO0OSevOVa2-168" value="&lt;b&gt;1&lt;/b&gt;" style="text;html=1;align=center;verticalAlign=middle;resizable=0;points=[];autosize=1;strokeColor=none;fillColor=none;fontSize=11;fontFamily=Times New Roman;" vertex="1" parent="1">
          <mxGeometry x="880" y="-20" width="30" height="30" as="geometry" />
        </mxCell>
        <mxCell id="tyPaWkdRhVO0OSevOVa2-169" value="&lt;b&gt;1&lt;/b&gt;" style="text;html=1;align=center;verticalAlign=middle;resizable=0;points=[];autosize=1;strokeColor=none;fillColor=none;fontSize=11;fontFamily=Times New Roman;" vertex="1" parent="1">
          <mxGeometry x="1270" y="-420" width="30" height="30" as="geometry" />
        </mxCell>
        <mxCell id="tyPaWkdRhVO0OSevOVa2-170" value="&lt;b&gt;1&lt;/b&gt;" style="text;html=1;align=center;verticalAlign=middle;resizable=0;points=[];autosize=1;strokeColor=none;fillColor=none;fontSize=11;fontFamily=Times New Roman;" vertex="1" parent="1">
          <mxGeometry x="827" y="-420" width="30" height="30" as="geometry" />
        </mxCell>
        <mxCell id="tyPaWkdRhVO0OSevOVa2-171" value="&lt;b&gt;1&lt;/b&gt;" style="text;html=1;align=center;verticalAlign=middle;resizable=0;points=[];autosize=1;strokeColor=none;fillColor=none;fontSize=11;fontFamily=Times New Roman;" vertex="1" parent="1">
          <mxGeometry x="450" y="-63" width="30" height="30" as="geometry" />
        </mxCell>
        <mxCell id="tyPaWkdRhVO0OSevOVa2-172" value="&lt;b&gt;*&lt;/b&gt;" style="text;html=1;align=center;verticalAlign=middle;resizable=0;points=[];autosize=1;strokeColor=none;fillColor=none;fontSize=11;fontFamily=Times New Roman;" vertex="1" parent="1">
          <mxGeometry x="670" y="-410" width="30" height="30" as="geometry" />
        </mxCell>
        <mxCell id="tyPaWkdRhVO0OSevOVa2-173" value="&lt;b&gt;*&lt;/b&gt;" style="text;html=1;align=center;verticalAlign=middle;resizable=0;points=[];autosize=1;strokeColor=none;fillColor=none;fontSize=11;fontFamily=Times New Roman;" vertex="1" parent="1">
          <mxGeometry x="650" y="-20" width="30" height="30" as="geometry" />
        </mxCell>
        <mxCell id="tyPaWkdRhVO0OSevOVa2-174" value="&lt;b&gt;*&lt;/b&gt;" style="text;html=1;align=center;verticalAlign=middle;resizable=0;points=[];autosize=1;strokeColor=none;fillColor=none;fontSize=11;fontFamily=Times New Roman;" vertex="1" parent="1">
          <mxGeometry x="330" y="-100" width="30" height="30" as="geometry" />
        </mxCell>
        <mxCell id="tyPaWkdRhVO0OSevOVa2-175" value="&lt;b&gt;*&lt;/b&gt;" style="text;html=1;align=center;verticalAlign=middle;resizable=0;points=[];autosize=1;strokeColor=none;fillColor=none;fontSize=11;fontFamily=Times New Roman;" vertex="1" parent="1">
          <mxGeometry x="90" y="-160" width="30" height="30" as="geometry" />
        </mxCell>
        <mxCell id="tyPaWkdRhVO0OSevOVa2-181" value="&lt;b&gt;*&lt;/b&gt;" style="text;html=1;align=center;verticalAlign=middle;resizable=0;points=[];autosize=1;strokeColor=none;fillColor=none;fontSize=11;fontFamily=Times New Roman;" vertex="1" parent="1">
          <mxGeometry x="1070" y="-420" width="30" height="30" as="geometry" />
        </mxCell>
        <mxCell id="tyPaWkdRhVO0OSevOVa2-182" value="&lt;b&gt;1&lt;/b&gt;" style="text;html=1;align=center;verticalAlign=middle;resizable=0;points=[];autosize=1;strokeColor=none;fillColor=none;fontSize=11;fontFamily=Times New Roman;" vertex="1" parent="1">
          <mxGeometry x="310" y="-241" width="30" height="30" as="geometry" />
        </mxCell>
        <mxCell id="tyPaWkdRhVO0OSevOVa2-183" value="&lt;b&gt;*&lt;/b&gt;" style="text;html=1;align=center;verticalAlign=middle;resizable=0;points=[];autosize=1;strokeColor=none;fillColor=none;fontSize=11;fontFamily=Times New Roman;" vertex="1" parent="1">
          <mxGeometry x="430" y="-328.5" width="30" height="30" as="geometry" />
        </mxCell>
        <mxCell id="tyPaWkdRhVO0OSevOVa2-186" value="" style="triangle;aspect=fixed;fillColor=strokeColor;fontFamily=Times New Roman;fontSize=11;rotation=15;" vertex="1" parent="1">
          <mxGeometry x="-429" y="-273" width="12" height="24" as="geometry" />
        </mxCell>
        <mxCell id="tyPaWkdRhVO0OSevOVa2-188" value="" style="endArrow=none;html=1;rounded=0;fontFamily=Times New Roman;fontSize=11;" edge="1" parent="1" source="tyPaWkdRhVO0OSevOVa2-13" target="tyPaWkdRhVO0OSevOVa2-52">
          <mxGeometry width="50" height="50" relative="1" as="geometry">
            <mxPoint x="-570" y="15.933712121212011" as="sourcePoint" />
            <mxPoint x="-200" y="-76.91666666666652" as="targetPoint" />
          </mxGeometry>
        </mxCell>
        <mxCell id="tyPaWkdRhVO0OSevOVa2-189" value="&lt;b&gt;1&lt;/b&gt;" style="text;html=1;align=center;verticalAlign=middle;resizable=0;points=[];autosize=1;strokeColor=none;fillColor=none;fontSize=11;fontFamily=Times New Roman;" vertex="1" parent="1">
          <mxGeometry x="-562" y="-309" width="30" height="30" as="geometry" />
        </mxCell>
        <mxCell id="tyPaWkdRhVO0OSevOVa2-190" value="&lt;b&gt;*&lt;/b&gt;" style="text;html=1;align=center;verticalAlign=middle;resizable=0;points=[];autosize=1;strokeColor=none;fillColor=none;fontSize=11;fontFamily=Times New Roman;" vertex="1" parent="1">
          <mxGeometry x="-248" y="-185" width="30" height="30" as="geometry" />
        </mxCell>
        <mxCell id="tyPaWkdRhVO0OSevOVa2-193" value="Quan ly" style="text;html=1;align=center;verticalAlign=middle;resizable=0;points=[];autosize=1;strokeColor=none;fillColor=none;fontSize=11;fontFamily=Times New Roman;" vertex="1" parent="1">
          <mxGeometry x="-492" y="-290" width="72" height="32" as="geometry" />
        </mxCell>
        <mxCell id="tyPaWkdRhVO0OSevOVa2-215" value="" style="group" vertex="1" connectable="0" parent="1">
          <mxGeometry x="6" y="-103" width="79" height="32" as="geometry" />
        </mxCell>
        <mxCell id="tyPaWkdRhVO0OSevOVa2-207" value="" style="triangle;aspect=fixed;fillColor=strokeColor;fontFamily=Times New Roman;fontSize=11;rotation=0;" vertex="1" parent="tyPaWkdRhVO0OSevOVa2-215">
          <mxGeometry y="4" width="12" height="24" as="geometry" />
        </mxCell>
        <mxCell id="tyPaWkdRhVO0OSevOVa2-208" value="Quan ly" style="text;html=1;align=center;verticalAlign=middle;resizable=0;points=[];autosize=1;strokeColor=none;fillColor=none;fontSize=11;fontFamily=Times New Roman;" vertex="1" parent="tyPaWkdRhVO0OSevOVa2-215">
          <mxGeometry x="7" width="72" height="32" as="geometry" />
        </mxCell>
        <mxCell id="tyPaWkdRhVO0OSevOVa2-216" value="" style="group;rotation=15;" vertex="1" connectable="0" parent="1">
          <mxGeometry x="356" y="-38" width="79" height="32" as="geometry" />
        </mxCell>
        <mxCell id="tyPaWkdRhVO0OSevOVa2-217" value="" style="triangle;aspect=fixed;fillColor=strokeColor;fontFamily=Times New Roman;fontSize=11;rotation=15;" vertex="1" parent="tyPaWkdRhVO0OSevOVa2-216">
          <mxGeometry y="-5" width="12" height="24" as="geometry" />
        </mxCell>
        <mxCell id="tyPaWkdRhVO0OSevOVa2-218" value="Muon" style="text;html=1;align=center;verticalAlign=middle;resizable=0;points=[];autosize=1;strokeColor=none;fillColor=none;fontSize=11;fontFamily=Times New Roman;rotation=15;" vertex="1" parent="tyPaWkdRhVO0OSevOVa2-216">
          <mxGeometry x="14" y="1" width="59" height="32" as="geometry" />
        </mxCell>
        <mxCell id="tyPaWkdRhVO0OSevOVa2-219" value="" style="group;rotation=-45;" vertex="1" connectable="0" parent="1">
          <mxGeometry x="386" y="-242" width="79" height="32" as="geometry" />
        </mxCell>
        <mxCell id="tyPaWkdRhVO0OSevOVa2-220" value="" style="triangle;aspect=fixed;fillColor=strokeColor;fontFamily=Times New Roman;fontSize=11;rotation=-45;" vertex="1" parent="tyPaWkdRhVO0OSevOVa2-219">
          <mxGeometry x="9" y="29" width="12" height="24" as="geometry" />
        </mxCell>
        <mxCell id="tyPaWkdRhVO0OSevOVa2-221" value="Phieu" style="text;html=1;align=center;verticalAlign=middle;resizable=0;points=[];autosize=1;strokeColor=none;fillColor=none;fontSize=11;fontFamily=Times New Roman;rotation=-45;" vertex="1" parent="tyPaWkdRhVO0OSevOVa2-219">
          <mxGeometry x="14" y="-3" width="57" height="32" as="geometry" />
        </mxCell>
        <mxCell id="tyPaWkdRhVO0OSevOVa2-222" value="" style="group;rotation=0;" vertex="1" connectable="0" parent="1">
          <mxGeometry x="726" y="-364" width="79" height="32" as="geometry" />
        </mxCell>
        <mxCell id="tyPaWkdRhVO0OSevOVa2-223" value="" style="triangle;aspect=fixed;fillColor=strokeColor;fontFamily=Times New Roman;fontSize=11;rotation=0;" vertex="1" parent="tyPaWkdRhVO0OSevOVa2-222">
          <mxGeometry x="-2" y="4" width="12" height="24" as="geometry" />
        </mxCell>
        <mxCell id="tyPaWkdRhVO0OSevOVa2-224" value="Thuoc&amp;nbsp;" style="text;html=1;align=center;verticalAlign=middle;resizable=0;points=[];autosize=1;strokeColor=none;fillColor=none;fontSize=11;fontFamily=Times New Roman;rotation=0;" vertex="1" parent="tyPaWkdRhVO0OSevOVa2-222">
          <mxGeometry x="11" width="66" height="32" as="geometry" />
        </mxCell>
        <mxCell id="tyPaWkdRhVO0OSevOVa2-225" value="" style="group;rotation=0;" vertex="1" connectable="0" parent="1">
          <mxGeometry x="742" y="23" width="79" height="32" as="geometry" />
        </mxCell>
        <mxCell id="tyPaWkdRhVO0OSevOVa2-226" value="" style="triangle;aspect=fixed;fillColor=strokeColor;fontFamily=Times New Roman;fontSize=11;rotation=0;" vertex="1" parent="tyPaWkdRhVO0OSevOVa2-225">
          <mxGeometry x="-2" y="4" width="12" height="24" as="geometry" />
        </mxCell>
        <mxCell id="tyPaWkdRhVO0OSevOVa2-227" value="hoc" style="text;html=1;align=center;verticalAlign=middle;resizable=0;points=[];autosize=1;strokeColor=none;fillColor=none;fontSize=11;fontFamily=Times New Roman;rotation=0;" vertex="1" parent="tyPaWkdRhVO0OSevOVa2-225">
          <mxGeometry x="23" width="43" height="32" as="geometry" />
        </mxCell>
        <mxCell id="tyPaWkdRhVO0OSevOVa2-228" value="" style="group;rotation=0;" vertex="1" connectable="0" parent="1">
          <mxGeometry x="1142" y="-375" width="98" height="32" as="geometry" />
        </mxCell>
        <mxCell id="tyPaWkdRhVO0OSevOVa2-229" value="" style="triangle;aspect=fixed;fillColor=strokeColor;fontFamily=Times New Roman;fontSize=11;rotation=0;" vertex="1" parent="tyPaWkdRhVO0OSevOVa2-228">
          <mxGeometry x="-2" y="4" width="12" height="24" as="geometry" />
        </mxCell>
        <mxCell id="tyPaWkdRhVO0OSevOVa2-230" value="Quan ly" style="text;html=1;align=center;verticalAlign=middle;resizable=0;points=[];autosize=1;strokeColor=none;fillColor=none;fontSize=11;fontFamily=Times New Roman;rotation=0;" vertex="1" parent="tyPaWkdRhVO0OSevOVa2-228">
          <mxGeometry x="9" width="72" height="32" as="geometry" />
        </mxCell>
      </root>
    </mxGraphModel>
  </diagram>
</mxfile>
